<?xml version="1.0" encoding="UTF-8" standalone="no"?>
<svg width="123px" height="122px" viewBox="0 0 123 122" version="1.1" xmlns="http://www.w3.org/2000/svg" xmlns:xlink="http://www.w3.org/1999/xlink" xmlns:sketch="http://www.bohemiancoding.com/sketch/ns">
    <!-- Generator: Sketch 3.4.3 (16618) - http://www.bohemiancoding.com/sketch -->
    <title>ecocheckbox1</title>
    <desc>Created with Sketch.</desc>
    <defs></defs>
    <g id="Page-1" stroke="none" stroke-width="1" fill="none" fill-rule="evenodd" sketch:type="MSPage">
        <g id="check-boxes" sketch:type="MSLayerGroup" transform="translate(-155.000000, 0.000000)">
            <g id="ecocheckbox1" transform="translate(155.000000, 0.000000)" sketch:type="MSShapeGroup">
                <g id="Group-12" fill="#1EB09A">
                    <path d="M122.02,62.118 C121.506,95.709 93.844,122.523 60.277,121.992 C26.68,121.467 -0.139,93.817 0.409,60.221 C0.934,26.635 28.573,-0.155 62.163,0.364 C95.743,0.889 122.562,28.539 122.02,62.118" id="Fill-11"></path>
                </g>
                <path d="M61.841,87.936 C56.391,87.936 51.321,86.333 47.087,83.565 L42.554,88.069 C47.988,91.962 54.649,94.246 61.841,94.246 C68.958,94.246 75.54,92.02 80.938,88.213 L76.417,83.692 C72.217,86.379 67.206,87.936 61.841,87.936" id="Fill-13" fill="#FFFFFF"></path>
                <path d="M61.841,33.72 C67.228,33.72 72.235,35.301 76.457,38.006 L80.748,33.715 C75.378,29.977 68.872,27.803 61.841,27.803 C54.73,27.803 48.161,30.04 42.762,33.836 L47.047,38.121 C51.292,35.347 56.385,33.72 61.841,33.72" id="Fill-14" fill="#FFFFFF"></path>
                <path d="M62.124,99.869 C53.311,99.869 45.184,96.922 38.667,91.962 L34.024,96.611 C41.741,102.69 51.483,106.329 62.078,106.329 C72.459,106.329 82.04,102.834 89.694,96.951 L85.056,92.349 C78.643,97.078 70.717,99.869 62.124,99.869" id="Fill-15" fill="#FFFFFF"></path>
                <path d="M62.124,22.421 C70.574,22.421 78.389,25.121 84.745,29.7 L89.583,24.856 C81.97,19.031 72.414,15.564 62.078,15.564 C51.535,15.564 41.816,19.156 34.116,25.195 L39.001,30.087 C45.467,25.265 53.444,22.421 62.124,22.421" id="Fill-16" fill="#FFFFFF"></path>
                <path d="M34.163,60.788 C34.163,55.436 35.719,50.429 38.418,46.225 L34.093,41.899 C30.287,47.285 28.049,53.884 28.049,61.001 C28.049,68.015 30.229,74.521 33.944,79.885 L38.424,75.398 C35.719,71.193 34.163,66.175 34.163,60.788" id="Fill-17" fill="#FFFFFF"></path>
                <path d="M22.817,61.111 C22.817,52.523 25.626,44.586 30.356,38.161 L25.488,33.305 C19.605,40.953 16.11,50.516 16.11,60.909 C16.11,71.262 19.587,80.79 25.407,88.427 L30.108,83.714 C25.516,77.365 22.817,69.555 22.817,61.111" id="Fill-18" fill="#FFFFFF"></path>
            </g>
        </g>
    </g>
</svg>