<?xml version="1.0" encoding="UTF-8" standalone="no"?>
<svg width="200px" height="200px" viewBox="0 0 200 200" version="1.1" xmlns="http://www.w3.org/2000/svg" xmlns:xlink="http://www.w3.org/1999/xlink" xmlns:sketch="http://www.bohemiancoding.com/sketch/ns">
    <!-- Generator: Sketch 3.4.2 (15857) - http://www.bohemiancoding.com/sketch -->
    <title>ecostagelogowhite</title>
    <desc>Created with Sketch.</desc>
    <defs></defs>
    <g id="Symbols" stroke="none" stroke-width="1" fill="none" fill-rule="evenodd" sketch:type="MSPage">
        <g id="buttons" sketch:type="MSArtboardGroup" transform="translate(-22.000000, -700.000000)">
            <g id="Rectangle-47" sketch:type="MSLayerGroup" transform="translate(22.000000, 700.000000)">
                <g id="ecostagelogowhite" transform="translate(26.000000, 20.000000)" sketch:type="MSShapeGroup">
                    <g id="Surround">
                        <g id="Inner" transform="translate(21.330950, 21.327826)" fill="#139C8F">
                            <path d="M59.472449,105.646302 C49.9233239,105.646302 41.0351557,102.825442 33.5915897,97.9767139 L25.6764181,105.891008 C35.2035586,112.700932 46.867462,116.706311 59.472449,116.706311 C71.924962,116.706311 83.4590853,112.79314 92.9209811,106.132168 L84.9972994,98.2072342 C77.6296157,102.915523 68.8669726,105.646302 59.472449,105.646302" id="Fill-18"></path>
                            <path d="M59.472449,10.6683913 C68.8932123,10.6683913 77.673585,13.4133561 85.0561614,18.1464698 L92.5777374,10.626543 C83.1810863,4.11452179 71.7717789,0.292849852 59.472449,0.292849852 C47.0206452,0.292849852 35.4914861,4.20672991 26.0267536,10.8634469 L33.5391102,18.3748622 C40.9961507,13.5034363 49.9013393,10.6683913 59.472449,10.6683913" id="Fill-19"></path>
                            <path d="M10.9786374,58.0974112 C10.9786374,48.6950201 13.7104034,39.9345394 18.4207851,32.5635641 L10.8360919,24.9812194 C4.17617112,34.4460283 0.261490797,45.9869385 0.261490797,58.4407091 C0.261490797,70.7419816 4.08114083,82.1459982 10.5928428,91.5441336 L18.4491523,83.6823274 C13.7210411,76.2978755 10.9786374,67.5203718 10.9786374,58.0974112" id="Fill-30"></path>
                        </g>
                        <g id="outer" fill="#186163">
                            <path d="M81.2948613,147.885511 C65.847476,147.885511 51.6099539,142.719019 40.2041924,134.024503 L32.054991,142.171445 C45.5812044,152.827866 62.6469412,159.18739 81.2019586,159.18739 C99.4038037,159.18739 116.167429,153.06548 129.570245,142.776472 L121.490544,134.69975 C110.238674,142.986423 96.34085,147.885511 81.2948613,147.885511" id="Fill-20"></path>
                            <path d="M81.2948613,12.186367 C96.0841264,12.186367 109.76565,16.9187715 120.912561,24.9493895 L129.403588,16.4591495 C116.031267,6.2467455 99.3243754,0.175195429 81.2019586,0.175195429 C62.7256603,0.175195429 45.7251682,6.48081227 32.2259037,17.0528279 L40.7786292,25.6090322 C52.0851053,17.1762449 66.1084547,12.186367 81.2948613,12.186367" id="Fill-21"></path>
                            <path d="M12.4440028,79.9721027 C12.4440028,64.9237375 17.3465726,51.0215901 25.6319367,39.7721995 L17.105451,31.2443669 C6.81735904,44.645044 0.694997593,61.4155732 0.694997593,79.619584 C0.694997593,97.7462819 6.76558881,114.451556 16.9742524,127.823861 L25.2071372,119.589676 C17.1735324,108.44597 12.4440028,94.7644131 12.4440028,79.9721027" id="Fill-31"></path>
                        </g>
                    </g>
                </g>
            </g>
        </g>
    </g>
</svg>